<!-- A simple red shield you can recolor via CSS filters if needed -->
<svg xmlns="http://www.w3.org/2000/svg" viewBox="0 0 128 128">
  <defs>
    <linearGradient id="g" x1="0" y1="0" x2="1" y2="1">
      <stop offset="0" stop-color="#ef4444"/>
      <stop offset="1" stop-color="#dc2626"/>
    </linearGradient>
  </defs>
  <path fill="url(#g)" d="M64 8c12 10 28 12 44 12v40c0 26-18 49-44 60C38 109 20 86 20 60V20c16 0 32-2 44-12z"/>
  <path fill="white" opacity=".14" d="M64 14c9 8 22 10 35 11v33c0 22-15 41-35 50-20-9-35-28-35-50V25c13-1 26-3 35-11z"/>
</svg>
